<svg version="1.0" xmlns="http://www.w3.org/2000/svg"
 width="900px" height="200px" 
 preserveAspectRatio="xMidYMid meet">

<g transform="translate(0.000000,225.000000) scale(0.100000,-0.100000)"
fill="#000000" stroke="none">
<path d="M395 1389 c-5 -6 -1 -16 9 -21 9 -5 16 -18 16 -28 0 -11 6 -20 13
-20 25 0 39 18 35 46 -2 24 -8 29 -35 32 -17 2 -34 -2 -38 -9z"/>
<path d="M950 1325 c0 -30 5 -55 10 -55 6 0 10 19 10 43 l0 42 20 -25 20 -25
20 24 20 23 0 -41 c0 -23 5 -41 10 -41 6 0 10 25 10 55 0 60 -10 68 -41 33
l-20 -23 -15 23 c-29 39 -44 28 -44 -33z"/>
<path d="M1095 1313 c8 -20 13 -44 9 -55 -3 -10 -1 -18 4 -18 11 0 55 101 47
108 -2 2 -10 -7 -16 -22 -15 -33 -25 -33 -33 -1 -4 14 -11 25 -16 25 -6 0 -4
-16 5 -37z"/>
<path d="M430 1300 c-8 -5 -12 -10 -7 -10 4 0 0 -12 -9 -26 -11 -16 -14 -28
-7 -32 5 -4 8 -24 5 -44 -4 -36 -7 -39 -58 -55 -29 -9 -55 -22 -58 -29 -3 -7
0 -43 6 -80 7 -50 7 -69 -1 -72 -6 -2 -11 -10 -11 -18 0 -10 13 -14 46 -14 38
0 45 3 40 18 -4 15 -26 130 -26 139 0 9 23 1 37 -13 12 -12 27 -14 69 -8 30 3
71 3 91 -1 l38 -8 -30 -13 c-16 -7 -25 -13 -20 -14 6 0 3 -5 -5 -10 -11 -7 -5
-10 25 -10 47 -1 82 -18 102 -51 14 -23 14 -23 9 10 -3 18 -6 45 -6 58 0 19
-5 24 -22 23 -60 -5 -69 17 -10 23 20 2 0 4 -45 5 -66 2 -83 5 -83 17 0 8 -4
15 -9 15 -5 0 -7 35 -4 80 5 64 3 84 -11 105 -18 27 -24 29 -46 15z"/>
<path d="M730 1135 l0 -135 60 0 c33 0 76 6 95 14 93 39 101 194 13 242 -13 8
-56 13 -95 14 l-73 0 0 -135z m161 102 c19 -12 39 -39 48 -60 12 -33 12 -42
-3 -80 -21 -55 -57 -77 -130 -77 l-56 0 0 120 0 120 54 0 c39 0 62 -6 87 -23z"/>
<path d="M1250 1135 c0 -83 4 -135 10 -135 6 0 10 52 10 135 0 83 -4 135 -10
135 -6 0 -10 -52 -10 -135z"/>
<path d="M1322 1259 c2 -6 8 -10 13 -10 5 0 11 4 13 10 2 6 -4 11 -13 11 -9 0
-15 -5 -13 -11z"/>
<path d="M1073 1188 c-37 -10 -63 -50 -63 -98 0 -42 47 -90 89 -90 36 0 81 16
81 29 0 5 -17 3 -39 -6 -33 -13 -43 -13 -67 -2 -16 8 -34 25 -41 39 l-12 25
89 3 c87 3 90 4 90 26 0 53 -65 91 -127 74z m85 -25 c12 -10 22 -27 24 -38 3
-18 -3 -20 -74 -23 -68 -2 -78 -1 -78 14 0 53 85 83 128 47z"/>
<path d="M1653 1188 c-21 -5 -38 -19 -48 -38 -48 -93 35 -181 130 -138 40 18
29 28 -14 11 -33 -13 -43 -13 -67 -2 -16 8 -34 25 -41 39 l-12 25 89 3 c87 3
90 4 90 26 0 53 -65 91 -127 74z m85 -25 c12 -10 22 -27 24 -38 3 -18 -3 -20
-74 -23 -72 -3 -78 -1 -78 17 0 51 85 80 128 44z"/>
<path d="M265 1180 c3 -5 8 -10 11 -10 2 0 4 5 4 10 0 6 -5 10 -11 10 -5 0 -7
-4 -4 -10z"/>
<path d="M1334 1095 c0 -55 1 -76 3 -47 2 29 2 74 0 100 -2 26 -3 2 -3 -53z"/>
<path d="M1390 1187 c0 -21 75 -187 83 -184 12 4 89 178 82 185 -8 8 -10 3
-47 -87 l-35 -84 -32 79 c-30 72 -51 109 -51 91z"/>
<path d="M1830 1095 c0 -114 17 -127 22 -17 4 84 0 112 -13 112 -5 0 -9 -43
-9 -95z"/>
<path d="M1873 1183 c-7 -2 -13 -9 -13 -14 0 -6 9 -5 21 2 12 6 32 9 45 6 13
-2 24 0 24 4 0 9 -56 11 -77 2z"/>
<path d="M1990 1186 c0 -3 16 -46 36 -95 34 -87 35 -90 19 -126 -8 -21 -13
-40 -10 -43 7 -7 8 -5 35 58 12 30 38 90 56 133 18 42 29 77 25 77 -5 0 -23
-36 -42 -80 -18 -44 -35 -80 -39 -80 -3 0 -18 34 -34 75 -24 64 -46 102 -46
81z"/>
<path d="M246 1080 c-10 -32 -16 -64 -13 -71 3 -8 6 -4 6 9 1 28 28 94 42 103
7 4 6 8 -3 11 -10 4 -19 -12 -32 -52z"/>
<path d="M432 980 c0 -14 2 -19 5 -12 2 6 2 18 0 25 -3 6 -5 1 -5 -13z"/>
<path d="M450 960 c0 -14 5 -31 12 -38 16 -16 -154 -17 -183 -1 -19 10 -20 9
-9 -11 11 -20 18 -21 115 -18 90 3 105 1 114 -15 19 -30 58 -39 92 -22 23 13
29 22 28 48 l-1 32 -9 -32 c-15 -52 -75 -59 -100 -11 l-11 23 21 -22 c35 -36
81 -25 81 20 0 16 -7 18 -47 16 -27 -1 -53 -6 -60 -12 -17 -13 -29 39 -13 58
9 11 8 14 -9 12 -16 -1 -21 -8 -21 -27z"/>
<path d="M530 975 c0 -10 11 -15 35 -15 26 0 33 3 29 15 -4 9 -19 15 -35 15
-19 0 -29 -5 -29 -15z"/>
<path d="M116 948 c-21 -29 -20 -51 2 -79 26 -31 78 -31 104 0 19 25 24 61 8
61 -5 0 -10 -10 -10 -23 0 -30 -18 -47 -50 -47 -33 0 -50 17 -49 50 l1 25 7
-24 c9 -33 36 -49 59 -35 26 17 27 52 0 74 -31 26 -53 25 -72 -2z m54 8 c0 -2
-7 -7 -16 -10 -8 -3 -12 -2 -9 4 6 10 25 14 25 6z m0 -56 c0 -5 -2 -10 -4 -10
-3 0 -8 5 -11 10 -3 6 -1 10 4 10 6 0 11 -4 11 -10z"/>
<path d="M1685 961 c14 -6 22 -21 26 -52 l6 -44 1 43 c2 34 6 44 25 52 17 7
12 9 -28 9 -34 0 -44 -3 -30 -8z"/>
<path d="M1920 920 c0 -27 5 -50 10 -50 6 0 10 8 10 18 1 16 1 16 11 0 5 -10
14 -18 20 -18 5 0 4 9 -3 19 -9 15 -9 23 1 35 16 19 1 22 -17 4 -9 -9 -12 -6
-12 15 0 15 -4 27 -10 27 -5 0 -10 -22 -10 -50z"/>
<path d="M410 940 c-9 -6 -10 -10 -3 -10 6 0 15 5 18 10 8 12 4 12 -15 0z"/>
<path d="M548 943 c12 -2 30 -2 40 0 9 3 -1 5 -23 4 -22 0 -30 -2 -17 -4z"/>
<path d="M1754 926 c-13 -33 0 -51 39 -54 36 -3 37 -3 37 32 0 34 -2 36 -35
36 -22 0 -38 -6 -41 -14z m54 -19 c4 -21 -27 -35 -38 -17 -12 19 0 42 19 38 9
-2 17 -11 19 -21z"/>
<path d="M1845 930 c-9 -15 4 -30 26 -30 10 0 19 -5 19 -11 0 -6 -9 -9 -20 -6
-11 3 -23 1 -26 -5 -4 -5 7 -8 27 -6 39 3 47 31 12 36 -13 2 -23 7 -23 12 0 5
10 11 23 13 19 4 19 4 -5 6 -15 0 -30 -3 -33 -9z"/>
</g>
</svg>
