<svg class="svg-icon" style="width: 1em; height: 1em;vertical-align: middle;fill: currentColor;overflow: hidden;" viewBox="0 0 1024 1024" version="1.1" xmlns="http://www.w3.org/2000/svg"><path d="M365.714286 170.666667c0-53.638095 43.885714-97.52381 97.523809-97.52381h97.52381c53.638095 0 97.52381 43.885714 97.523809 97.52381v73.142857h73.142857V170.666667c0-95.085714-78.019048-170.666667-170.666666-170.666667h-97.52381c-92.647619 0-170.666667 75.580952-170.666666 170.666667v73.142857h73.142857V170.666667z" fill="#FFA3AB" /><path d="M780.190476 243.809524H243.809524c-53.638095 0-97.52381 43.885714-97.52381 97.523809v585.142857c0 53.638095 43.885714 97.52381 97.52381 97.52381h536.380952c53.638095 0 97.52381-43.885714 97.52381-97.52381V341.333333c0-53.638095-43.885714-97.52381-97.52381-97.523809z" fill="#FF4858" /><path d="M146.285714 780.190476h731.428572v73.142857H146.285714z" fill="#FFFFFF" /></svg>